<svg width="205" height="35" viewBox="0 0 205 35" fill="none" xmlns="http://www.w3.org/2000/svg">
<path d="M0.512695 27.9002H34.4873V30.5243H0.512695V27.9002Z" fill="#9DC6FB"/>
<path d="M19.8479 19.4756C22.67 19.4756 24.9579 17.1878 24.9579 14.3656C24.9579 11.5434 22.67 9.25562 19.8479 9.25562C17.0257 9.25562 14.7379 11.5434 14.7379 14.3656C14.7379 17.1878 17.0257 19.4756 19.8479 19.4756Z" fill="#FFE07D"/>
<path d="M19.8479 19.4757C20.9937 19.4757 22.0514 19.0985 22.9038 18.4616L18.4049 9.46368C16.2856 10.0866 14.7379 12.0449 14.7379 14.3657C14.7378 17.1878 17.0256 19.4757 19.8479 19.4757Z" fill="#FFD064"/>
<path d="M34.4874 27.9002L25.4374 9.80034C25.1829 9.29141 24.4566 9.29141 24.2022 9.80034L15.1522 27.9002H34.4874Z" fill="#95D6A4"/>
<path d="M21.3877 15.4293L15.1522 27.9002H27.6231L21.3877 15.4293Z" fill="#78C2A4"/>
<path d="M25.9246 27.9003L13.9598 3.97065C13.6544 3.35992 12.7829 3.35992 12.4775 3.97065L0.512695 27.9003H25.9246Z" fill="#B3E59F"/>
<path d="M12.4776 3.97065L12.321 4.28373C13.8717 7.38506 24.1293 27.9003 24.1293 27.9003H25.9247L13.9599 3.97065C13.6545 3.35992 12.7829 3.35992 12.4776 3.97065Z" fill="#95D6A4"/>
<path d="M9.24073 12.5997C9.5072 12.7842 9.86615 12.7585 10.1037 12.5379L11.0484 11.6608C11.3558 11.3752 11.8448 11.4277 12.0848 11.7719L12.6522 12.5861C12.927 12.9804 13.5105 12.9804 13.7853 12.5861L14.3528 11.7719C14.5927 11.4277 15.0817 11.3752 15.3892 11.6608L16.3338 12.5379C16.5713 12.7585 16.9303 12.7842 17.1968 12.5997L17.9973 12.0455C16.5026 9.05613 14.8776 5.80598 13.9599 3.97074C13.6546 3.36001 12.783 3.36001 12.4776 3.97074L8.44025 12.0455L9.24073 12.5997Z" fill="#F9F6F9"/>
<path d="M16.5064 12.6546C16.7252 12.759 16.989 12.7435 17.1968 12.5997L17.9973 12.0455C16.5026 9.05613 14.8775 5.80598 13.9599 3.97074C13.6545 3.36001 12.7829 3.36001 12.4776 3.97074L12.321 4.28382C12.8707 5.38304 14.4973 8.6364 16.5064 12.6546Z" fill="#DFDDE2"/>
<path d="M21.793 16.2585C21.9957 16.3988 22.2688 16.3794 22.4496 16.2115L23.1684 15.5441C23.4024 15.3268 23.7744 15.3668 23.957 15.6286L24.3887 16.2481C24.5978 16.5481 25.0418 16.5481 25.2508 16.2481L25.6826 15.6286C25.8652 15.3666 26.2372 15.3268 26.4711 15.544L27.1899 16.2115C27.3706 16.3793 27.6437 16.3988 27.8465 16.2584L28.4556 15.8368C27.3468 13.6193 26.1438 11.2132 25.4372 9.79996C25.1827 9.29102 24.4565 9.29143 24.2021 9.80037L21.1839 15.8368L21.793 16.2585Z" fill="#DFDDE2"/>
<path d="M34.999 27.9002C34.999 27.8218 34.982 27.7433 34.9459 27.671L31.1091 19.9978C30.9825 19.7446 30.6748 19.6419 30.4212 19.7686C30.168 19.8952 30.0653 20.2031 30.1919 20.4564L33.6576 27.3876H26.2415L21.1117 17.1282L21.3783 16.595L21.5011 16.6799C21.8985 16.9552 22.4442 16.9162 22.7985 16.5872L23.5173 15.9197C23.5194 15.9177 23.5216 15.9158 23.5273 15.9164C23.5331 15.917 23.5347 15.9194 23.5363 15.9218L23.9681 16.5413C24.1622 16.8197 24.4805 16.9858 24.8198 16.9858C25.1591 16.9858 25.4774 16.8196 25.6715 16.5413L26.1032 15.9218C26.1048 15.9194 26.1065 15.9171 26.1123 15.9164C26.1181 15.916 26.1202 15.9178 26.1223 15.9198L26.8412 16.5872C27.1954 16.9162 27.7411 16.9552 28.1384 16.68L28.2613 16.5949L29.1213 18.3148C29.2111 18.4944 29.3922 18.5982 29.5803 18.5982C29.6573 18.5982 29.7355 18.5808 29.8092 18.544C30.0624 18.4174 30.1651 18.1095 30.0385 17.8562L25.8958 9.57146C25.6908 9.16103 25.2785 8.90611 24.8197 8.90611C24.3609 8.90611 23.9486 9.16103 23.7438 9.57125L23.4888 10.0813C22.4783 9.22385 21.1864 8.74301 19.8479 8.74301C18.9315 8.74301 18.0405 8.9636 17.2397 9.38408L14.4184 3.74149C14.1897 3.28417 13.73 3 13.2187 3C12.7073 3 12.2476 3.2841 12.0189 3.74149L6.49886 14.7815C6.37219 15.0348 6.47486 15.3428 6.72813 15.4694C6.98147 15.5961 7.28943 15.4933 7.41604 15.2401L8.63434 12.8035L8.94886 13.0212C9.40946 13.3402 10.0419 13.2949 10.4525 12.9136L11.3971 12.0364C11.4488 11.9884 11.5068 11.9866 11.5371 11.9899C11.5672 11.9931 11.6238 12.0072 11.664 12.065L12.2315 12.8792C12.4564 13.2018 12.8254 13.3945 13.2187 13.3945C13.6119 13.3945 13.9809 13.2018 14.2058 12.8792L14.7733 12.065C14.8136 12.0072 14.8701 11.9931 14.9002 11.9899C14.9304 11.9866 14.9885 11.9884 15.0402 12.0364L15.9848 12.9135C16.3955 13.2949 17.0278 13.3401 17.4884 13.0211L17.8029 12.8034L25.0949 27.3876H1.34224L6.34081 17.3904C6.46748 17.1371 6.3648 16.8292 6.11153 16.7026C5.85813 16.5758 5.55023 16.6786 5.42363 16.9318L0.0541406 27.671C0.0179102 27.7433 0.000957031 27.8218 0.000957031 27.9002C0.000615234 27.9002 0.000341797 27.9002 0 27.9002V30.5243C0 30.8074 0.229482 31.037 0.512695 31.037H34.4873C34.7705 31.037 35 30.8074 35 30.5243V27.9002C34.9997 27.9002 34.9994 27.9002 34.999 27.9002ZM24.8197 9.93144C24.8607 9.93144 24.9358 9.94422 24.9785 10.0297L27.7979 15.6685L27.5546 15.8369C27.5497 15.8403 27.5432 15.8399 27.5388 15.8358L26.82 15.1684C26.5996 14.9637 26.3012 14.8647 26.0029 14.8969C25.7039 14.9289 25.4339 15.0887 25.2619 15.3354L24.8301 15.955C24.8253 15.962 24.8141 15.962 24.8093 15.955L24.3775 15.3355C24.2056 15.0889 23.9355 14.929 23.6366 14.8969C23.3373 14.8648 23.0398 14.9638 22.8195 15.1683L22.1007 15.8358C22.0963 15.8398 22.0896 15.8402 22.0847 15.8369L21.8415 15.6685L24.661 10.0295C24.7036 9.94422 24.7788 9.93144 24.8197 9.93144ZM19.8479 9.76833C21.0275 9.76833 22.1621 10.2263 23.0128 11.0332L20.5386 15.9817L17.6984 10.3015C18.3572 9.95194 19.0918 9.76833 19.8479 9.76833ZM16.9048 12.1781C16.8368 12.2252 16.7433 12.2186 16.6826 12.1622L15.738 11.285C15.4826 11.0478 15.1374 10.9331 14.7909 10.9703C14.4444 11.0075 14.1314 11.1927 13.9321 11.4787L13.3646 12.2929C13.3185 12.3592 13.2534 12.3691 13.2187 12.3691C13.1841 12.3691 13.119 12.3592 13.0728 12.2929L12.5053 11.4787C12.3061 11.1928 11.993 11.0075 11.6465 10.9703C11.3003 10.9331 10.9548 11.0478 10.6995 11.285L9.75482 12.1622C9.69418 12.2185 9.60066 12.2253 9.53258 12.1781L9.09761 11.8769L12.9361 4.19998C13.0149 4.04234 13.16 4.02532 13.2188 4.02532C13.2774 4.02532 13.4225 4.04234 13.5014 4.19998L17.3399 11.877L16.9048 12.1781ZM1.02539 30.0116V28.4129H33.9746V30.0116H1.02539Z" fill="black"/>
<path d="M55.784 10.67C55.832 10.514 55.916 10.4 56.036 10.328C56.156 10.244 56.288 10.202 56.432 10.202C56.624 10.202 56.786 10.262 56.918 10.382C57.062 10.49 57.134 10.64 57.134 10.832C57.134 10.916 57.116 11.012 57.08 11.12L53.012 22.586C52.952 22.754 52.85 22.886 52.706 22.982C52.562 23.066 52.4 23.108 52.22 23.108C52.052 23.108 51.896 23.066 51.752 22.982C51.608 22.886 51.506 22.754 51.446 22.586L47.918 12.614L44.354 22.586C44.294 22.754 44.192 22.886 44.048 22.982C43.904 23.066 43.748 23.108 43.58 23.108C43.412 23.108 43.256 23.066 43.112 22.982C42.968 22.886 42.866 22.754 42.806 22.586L38.72 11.12C38.684 11.024 38.666 10.934 38.666 10.85C38.666 10.658 38.738 10.502 38.882 10.382C39.038 10.262 39.212 10.202 39.404 10.202C39.548 10.202 39.68 10.244 39.8 10.328C39.932 10.4 40.022 10.514 40.07 10.67L43.616 20.894L47.216 10.778C47.276 10.598 47.372 10.466 47.504 10.382C47.636 10.286 47.78 10.238 47.936 10.238C48.092 10.238 48.236 10.286 48.368 10.382C48.5 10.478 48.596 10.616 48.656 10.796L52.202 20.93L55.784 10.67ZM64.9446 20.966C65.0766 20.966 65.1906 21.02 65.2866 21.128C65.3826 21.236 65.4306 21.374 65.4306 21.542C65.4306 21.842 65.2206 22.118 64.8006 22.37C64.3686 22.622 63.9126 22.814 63.4326 22.946C62.9526 23.066 62.4846 23.126 62.0286 23.126C60.6726 23.126 59.5986 22.724 58.8066 21.92C58.0266 21.116 57.6366 20.006 57.6366 18.59C57.6366 17.69 57.8106 16.898 58.1586 16.214C58.5066 15.518 58.9926 14.978 59.6166 14.594C60.2526 14.21 60.9726 14.018 61.7766 14.018C62.9166 14.018 63.8226 14.39 64.4946 15.134C65.1666 15.878 65.5026 16.886 65.5026 18.158C65.5026 18.398 65.4546 18.572 65.3586 18.68C65.2626 18.788 65.1066 18.842 64.8906 18.842H59.0946C59.2026 20.906 60.1806 21.938 62.0286 21.938C62.4966 21.938 62.8986 21.878 63.2346 21.758C63.5706 21.626 63.9306 21.452 64.3146 21.236C64.6266 21.056 64.8366 20.966 64.9446 20.966ZM61.7946 15.152C61.0266 15.152 60.4086 15.392 59.9406 15.872C59.4846 16.352 59.2146 17.03 59.1306 17.906H64.2246C64.2006 17.018 63.9786 16.34 63.5586 15.872C63.1386 15.392 62.5506 15.152 61.7946 15.152ZM71.2328 14.018C73.4288 14.018 74.5268 15.17 74.5268 17.474V22.37C74.5268 22.586 74.4608 22.76 74.3288 22.892C74.2088 23.024 74.0408 23.09 73.8248 23.09C73.6088 23.09 73.4348 23.024 73.3028 22.892C73.1708 22.76 73.1048 22.586 73.1048 22.37V21.506C72.8768 22.022 72.5288 22.424 72.0608 22.712C71.5928 22.988 71.0528 23.126 70.4408 23.126C69.8768 23.126 69.3548 23.012 68.8748 22.784C68.4068 22.556 68.0348 22.238 67.7588 21.83C67.4828 21.422 67.3448 20.972 67.3448 20.48C67.3448 19.82 67.5128 19.31 67.8488 18.95C68.1848 18.578 68.7368 18.314 69.5048 18.158C70.2728 17.99 71.3408 17.906 72.7088 17.906H73.1048V17.312C73.1048 16.592 72.9548 16.064 72.6548 15.728C72.3668 15.392 71.8928 15.224 71.2328 15.224C70.4168 15.224 69.5888 15.446 68.7488 15.89C68.4248 16.094 68.1968 16.196 68.0648 16.196C67.9208 16.196 67.8008 16.142 67.7048 16.034C67.6088 15.926 67.5608 15.788 67.5608 15.62C67.5608 15.452 67.6088 15.308 67.7048 15.188C67.8128 15.056 67.9808 14.924 68.2088 14.792C68.6288 14.552 69.1028 14.366 69.6308 14.234C70.1708 14.09 70.7048 14.018 71.2328 14.018ZM70.6388 21.974C71.3588 21.974 71.9468 21.734 72.4028 21.254C72.8708 20.762 73.1048 20.132 73.1048 19.364V18.842H72.7808C71.7248 18.842 70.9208 18.89 70.3688 18.986C69.8168 19.07 69.4208 19.22 69.1808 19.436C68.9528 19.64 68.8388 19.946 68.8388 20.354C68.8388 20.822 69.0068 21.212 69.3428 21.524C69.6908 21.824 70.1228 21.974 70.6388 21.974ZM81.2457 21.938C81.6657 21.974 81.8757 22.166 81.8757 22.514C81.8757 22.718 81.7977 22.874 81.6417 22.982C81.4977 23.078 81.2757 23.114 80.9757 23.09L80.4897 23.054C79.5297 22.982 78.8217 22.694 78.3657 22.19C77.9097 21.686 77.6817 20.924 77.6817 19.904V15.386H76.4757C76.2717 15.386 76.1097 15.338 75.9897 15.242C75.8817 15.134 75.8277 14.996 75.8277 14.828C75.8277 14.648 75.8817 14.504 75.9897 14.396C76.1097 14.288 76.2717 14.234 76.4757 14.234H77.6817V12.2C77.6817 11.972 77.7477 11.798 77.8797 11.678C78.0117 11.546 78.1917 11.48 78.4197 11.48C78.6357 11.48 78.8097 11.546 78.9417 11.678C79.0737 11.798 79.1397 11.972 79.1397 12.2V14.234H81.1377C81.3297 14.234 81.4797 14.288 81.5877 14.396C81.7077 14.504 81.7677 14.648 81.7677 14.828C81.7677 14.996 81.7077 15.134 81.5877 15.242C81.4797 15.338 81.3297 15.386 81.1377 15.386H79.1397V19.976C79.1397 20.636 79.2717 21.116 79.5357 21.416C79.8117 21.704 80.2197 21.866 80.7597 21.902L81.2457 21.938ZM87.7409 14.018C88.7729 14.018 89.5529 14.312 90.0809 14.9C90.6089 15.476 90.8729 16.34 90.8729 17.492V22.37C90.8729 22.598 90.8069 22.778 90.6749 22.91C90.5429 23.03 90.3689 23.09 90.1529 23.09C89.9249 23.09 89.7449 23.03 89.6129 22.91C89.4809 22.778 89.4149 22.598 89.4149 22.37V17.528C89.4149 16.748 89.2529 16.172 88.9289 15.8C88.6169 15.428 88.1129 15.242 87.4169 15.242C86.6129 15.242 85.9709 15.488 85.4909 15.98C85.0109 16.472 84.7709 17.138 84.7709 17.978V22.37C84.7709 22.598 84.7049 22.778 84.5729 22.91C84.4529 23.03 84.2789 23.09 84.0509 23.09C83.8229 23.09 83.6429 23.03 83.5109 22.91C83.3789 22.778 83.3129 22.598 83.3129 22.37V10.922C83.3129 10.718 83.3789 10.55 83.5109 10.418C83.6549 10.286 83.8349 10.22 84.0509 10.22C84.2789 10.22 84.4529 10.286 84.5729 10.418C84.7049 10.538 84.7709 10.706 84.7709 10.922V15.638C85.0589 15.11 85.4609 14.708 85.9769 14.432C86.4929 14.156 87.0809 14.018 87.7409 14.018ZM100.329 20.966C100.461 20.966 100.575 21.02 100.671 21.128C100.767 21.236 100.815 21.374 100.815 21.542C100.815 21.842 100.605 22.118 100.185 22.37C99.7534 22.622 99.2974 22.814 98.8174 22.946C98.3374 23.066 97.8694 23.126 97.4134 23.126C96.0574 23.126 94.9834 22.724 94.1914 21.92C93.4114 21.116 93.0214 20.006 93.0214 18.59C93.0214 17.69 93.1954 16.898 93.5434 16.214C93.8914 15.518 94.3774 14.978 95.0014 14.594C95.6374 14.21 96.3574 14.018 97.1614 14.018C98.3014 14.018 99.2074 14.39 99.8794 15.134C100.551 15.878 100.887 16.886 100.887 18.158C100.887 18.398 100.839 18.572 100.743 18.68C100.647 18.788 100.491 18.842 100.275 18.842H94.4794C94.5874 20.906 95.5654 21.938 97.4134 21.938C97.8814 21.938 98.2834 21.878 98.6194 21.758C98.9554 21.626 99.3154 21.452 99.6994 21.236C100.011 21.056 100.221 20.966 100.329 20.966ZM97.1794 15.152C96.4114 15.152 95.7934 15.392 95.3254 15.872C94.8694 16.352 94.5994 17.03 94.5154 17.906H99.6094C99.5854 17.018 99.3634 16.34 98.9434 15.872C98.5234 15.392 97.9354 15.152 97.1794 15.152ZM107.374 14.054C107.878 14.018 108.13 14.222 108.13 14.666C108.13 14.858 108.076 15.014 107.968 15.134C107.86 15.242 107.674 15.308 107.41 15.332L106.87 15.386C106.066 15.458 105.466 15.746 105.07 16.25C104.686 16.742 104.494 17.324 104.494 17.996V22.37C104.494 22.61 104.428 22.79 104.296 22.91C104.164 23.03 103.99 23.09 103.774 23.09C103.558 23.09 103.378 23.03 103.234 22.91C103.102 22.778 103.036 22.598 103.036 22.37V14.774C103.036 14.546 103.108 14.372 103.252 14.252C103.396 14.12 103.57 14.054 103.774 14.054C103.966 14.054 104.128 14.12 104.26 14.252C104.392 14.372 104.458 14.54 104.458 14.756V15.764C104.71 15.236 105.064 14.834 105.52 14.558C105.988 14.282 106.522 14.12 107.122 14.072L107.374 14.054ZM114.994 23C114.766 23 114.58 22.934 114.436 22.802C114.304 22.67 114.238 22.496 114.238 22.28V11.03C114.238 10.814 114.304 10.64 114.436 10.508C114.58 10.376 114.766 10.31 114.994 10.31H118.504C120.532 10.31 122.098 10.862 123.202 11.966C124.318 13.058 124.876 14.618 124.876 16.646C124.876 18.674 124.318 20.24 123.202 21.344C122.086 22.448 120.52 23 118.504 23H114.994ZM118.414 21.74C121.702 21.74 123.346 20.042 123.346 16.646C123.346 13.262 121.702 11.57 118.414 11.57H115.714V21.74H118.414ZM130.911 14.018C133.107 14.018 134.205 15.17 134.205 17.474V22.37C134.205 22.586 134.139 22.76 134.007 22.892C133.887 23.024 133.719 23.09 133.503 23.09C133.287 23.09 133.113 23.024 132.981 22.892C132.849 22.76 132.783 22.586 132.783 22.37V21.506C132.555 22.022 132.207 22.424 131.739 22.712C131.271 22.988 130.731 23.126 130.119 23.126C129.555 23.126 129.033 23.012 128.553 22.784C128.085 22.556 127.713 22.238 127.437 21.83C127.161 21.422 127.023 20.972 127.023 20.48C127.023 19.82 127.191 19.31 127.527 18.95C127.863 18.578 128.415 18.314 129.183 18.158C129.951 17.99 131.019 17.906 132.387 17.906H132.783V17.312C132.783 16.592 132.633 16.064 132.333 15.728C132.045 15.392 131.571 15.224 130.911 15.224C130.095 15.224 129.267 15.446 128.427 15.89C128.103 16.094 127.875 16.196 127.743 16.196C127.599 16.196 127.479 16.142 127.383 16.034C127.287 15.926 127.239 15.788 127.239 15.62C127.239 15.452 127.287 15.308 127.383 15.188C127.491 15.056 127.659 14.924 127.887 14.792C128.307 14.552 128.781 14.366 129.309 14.234C129.849 14.09 130.383 14.018 130.911 14.018ZM130.317 21.974C131.037 21.974 131.625 21.734 132.081 21.254C132.549 20.762 132.783 20.132 132.783 19.364V18.842H132.459C131.403 18.842 130.599 18.89 130.047 18.986C129.495 19.07 129.099 19.22 128.859 19.436C128.631 19.64 128.517 19.946 128.517 20.354C128.517 20.822 128.685 21.212 129.021 21.524C129.369 21.824 129.801 21.974 130.317 21.974ZM139.825 23.126C139.273 23.126 138.745 23.06 138.241 22.928C137.749 22.796 137.311 22.61 136.927 22.37C136.711 22.226 136.555 22.094 136.459 21.974C136.375 21.842 136.333 21.686 136.333 21.506C136.333 21.35 136.375 21.224 136.459 21.128C136.555 21.02 136.675 20.966 136.819 20.966C136.963 20.966 137.173 21.056 137.449 21.236C137.809 21.452 138.163 21.626 138.511 21.758C138.871 21.878 139.315 21.938 139.843 21.938C140.491 21.938 140.995 21.824 141.355 21.596C141.715 21.368 141.895 21.038 141.895 20.606C141.895 20.342 141.829 20.132 141.697 19.976C141.565 19.808 141.337 19.664 141.013 19.544C140.689 19.412 140.215 19.28 139.591 19.148C138.535 18.92 137.779 18.614 137.323 18.23C136.867 17.846 136.639 17.324 136.639 16.664C136.639 16.148 136.783 15.692 137.071 15.296C137.359 14.9 137.755 14.588 138.259 14.36C138.775 14.132 139.357 14.018 140.005 14.018C140.473 14.018 140.923 14.084 141.355 14.216C141.799 14.336 142.189 14.51 142.525 14.738C142.933 15.026 143.137 15.326 143.137 15.638C143.137 15.794 143.089 15.926 142.993 16.034C142.897 16.142 142.783 16.196 142.651 16.196C142.507 16.196 142.291 16.094 142.003 15.89C141.667 15.674 141.349 15.506 141.049 15.386C140.749 15.266 140.377 15.206 139.933 15.206C139.369 15.206 138.913 15.332 138.565 15.584C138.229 15.836 138.061 16.172 138.061 16.592C138.061 16.856 138.121 17.072 138.241 17.24C138.373 17.396 138.583 17.54 138.871 17.672C139.171 17.792 139.597 17.912 140.149 18.032C140.965 18.212 141.595 18.41 142.039 18.626C142.495 18.842 142.819 19.106 143.011 19.418C143.203 19.73 143.299 20.126 143.299 20.606C143.299 21.362 142.981 21.974 142.345 22.442C141.709 22.898 140.869 23.126 139.825 23.126ZM149.95 14.018C150.982 14.018 151.762 14.312 152.29 14.9C152.818 15.476 153.082 16.34 153.082 17.492V22.37C153.082 22.598 153.016 22.778 152.884 22.91C152.752 23.03 152.578 23.09 152.362 23.09C152.134 23.09 151.954 23.03 151.822 22.91C151.69 22.778 151.624 22.598 151.624 22.37V17.528C151.624 16.748 151.462 16.172 151.138 15.8C150.826 15.428 150.322 15.242 149.626 15.242C148.822 15.242 148.18 15.488 147.7 15.98C147.22 16.472 146.98 17.138 146.98 17.978V22.37C146.98 22.598 146.914 22.778 146.782 22.91C146.662 23.03 146.488 23.09 146.26 23.09C146.032 23.09 145.852 23.03 145.72 22.91C145.588 22.778 145.522 22.598 145.522 22.37V10.922C145.522 10.718 145.588 10.55 145.72 10.418C145.864 10.286 146.044 10.22 146.26 10.22C146.488 10.22 146.662 10.286 146.782 10.418C146.914 10.538 146.98 10.706 146.98 10.922V15.638C147.268 15.11 147.67 14.708 148.186 14.432C148.702 14.156 149.29 14.018 149.95 14.018ZM160.162 14.018C160.93 14.018 161.608 14.204 162.196 14.576C162.784 14.948 163.24 15.476 163.564 16.16C163.888 16.844 164.05 17.636 164.05 18.536C164.05 19.448 163.888 20.252 163.564 20.948C163.24 21.632 162.784 22.166 162.196 22.55C161.608 22.934 160.93 23.126 160.162 23.126C159.478 23.126 158.878 22.976 158.362 22.676C157.858 22.376 157.474 21.95 157.21 21.398V22.37C157.21 22.586 157.144 22.76 157.012 22.892C156.892 23.024 156.718 23.09 156.49 23.09C156.262 23.09 156.082 23.024 155.95 22.892C155.818 22.76 155.752 22.586 155.752 22.37V10.922C155.752 10.718 155.818 10.55 155.95 10.418C156.082 10.286 156.262 10.22 156.49 10.22C156.718 10.22 156.892 10.286 157.012 10.418C157.144 10.538 157.21 10.706 157.21 10.922V15.746C157.474 15.194 157.858 14.768 158.362 14.468C158.878 14.168 159.478 14.018 160.162 14.018ZM159.874 21.92C160.726 21.92 161.386 21.626 161.854 21.038C162.322 20.438 162.556 19.604 162.556 18.536C162.556 17.492 162.322 16.682 161.854 16.106C161.386 15.53 160.726 15.242 159.874 15.242C159.022 15.242 158.362 15.53 157.894 16.106C157.438 16.682 157.21 17.504 157.21 18.572C157.21 19.64 157.438 20.468 157.894 21.056C158.362 21.632 159.022 21.92 159.874 21.92ZM169.865 23.126C169.037 23.126 168.305 22.94 167.669 22.568C167.045 22.196 166.559 21.668 166.211 20.984C165.875 20.288 165.707 19.484 165.707 18.572C165.707 17.66 165.875 16.862 166.211 16.178C166.559 15.482 167.045 14.948 167.669 14.576C168.305 14.204 169.037 14.018 169.865 14.018C170.693 14.018 171.425 14.204 172.061 14.576C172.697 14.948 173.183 15.482 173.519 16.178C173.867 16.862 174.041 17.66 174.041 18.572C174.041 19.484 173.867 20.288 173.519 20.984C173.183 21.668 172.697 22.196 172.061 22.568C171.425 22.94 170.693 23.126 169.865 23.126ZM169.865 21.92C170.729 21.92 171.389 21.638 171.845 21.074C172.313 20.498 172.547 19.664 172.547 18.572C172.547 17.504 172.313 16.682 171.845 16.106C171.377 15.518 170.717 15.224 169.865 15.224C169.013 15.224 168.353 15.518 167.885 16.106C167.417 16.682 167.183 17.504 167.183 18.572C167.183 19.652 167.411 20.48 167.867 21.056C168.335 21.632 169.001 21.92 169.865 21.92ZM179.795 14.018C181.991 14.018 183.089 15.17 183.089 17.474V22.37C183.089 22.586 183.023 22.76 182.891 22.892C182.771 23.024 182.603 23.09 182.387 23.09C182.171 23.09 181.997 23.024 181.865 22.892C181.733 22.76 181.667 22.586 181.667 22.37V21.506C181.439 22.022 181.091 22.424 180.623 22.712C180.155 22.988 179.615 23.126 179.003 23.126C178.439 23.126 177.917 23.012 177.437 22.784C176.969 22.556 176.597 22.238 176.321 21.83C176.045 21.422 175.907 20.972 175.907 20.48C175.907 19.82 176.075 19.31 176.411 18.95C176.747 18.578 177.299 18.314 178.067 18.158C178.835 17.99 179.903 17.906 181.271 17.906H181.667V17.312C181.667 16.592 181.517 16.064 181.217 15.728C180.929 15.392 180.455 15.224 179.795 15.224C178.979 15.224 178.151 15.446 177.311 15.89C176.987 16.094 176.759 16.196 176.627 16.196C176.483 16.196 176.363 16.142 176.267 16.034C176.171 15.926 176.123 15.788 176.123 15.62C176.123 15.452 176.171 15.308 176.267 15.188C176.375 15.056 176.543 14.924 176.771 14.792C177.191 14.552 177.665 14.366 178.193 14.234C178.733 14.09 179.267 14.018 179.795 14.018ZM179.201 21.974C179.921 21.974 180.509 21.734 180.965 21.254C181.433 20.762 181.667 20.132 181.667 19.364V18.842H181.343C180.287 18.842 179.483 18.89 178.931 18.986C178.379 19.07 177.983 19.22 177.743 19.436C177.515 19.64 177.401 19.946 177.401 20.354C177.401 20.822 177.569 21.212 177.905 21.524C178.253 21.824 178.685 21.974 179.201 21.974ZM190.096 14.054C190.6 14.018 190.852 14.222 190.852 14.666C190.852 14.858 190.798 15.014 190.69 15.134C190.582 15.242 190.396 15.308 190.132 15.332L189.592 15.386C188.788 15.458 188.188 15.746 187.792 16.25C187.408 16.742 187.216 17.324 187.216 17.996V22.37C187.216 22.61 187.15 22.79 187.018 22.91C186.886 23.03 186.712 23.09 186.496 23.09C186.28 23.09 186.1 23.03 185.956 22.91C185.824 22.778 185.758 22.598 185.758 22.37V14.774C185.758 14.546 185.83 14.372 185.974 14.252C186.118 14.12 186.292 14.054 186.496 14.054C186.688 14.054 186.85 14.12 186.982 14.252C187.114 14.372 187.18 14.54 187.18 14.756V15.764C187.432 15.236 187.786 14.834 188.242 14.558C188.71 14.282 189.244 14.12 189.844 14.072L190.096 14.054ZM198.966 10.22C199.194 10.22 199.374 10.286 199.506 10.418C199.638 10.55 199.704 10.718 199.704 10.922V22.37C199.704 22.586 199.638 22.76 199.506 22.892C199.374 23.024 199.194 23.09 198.966 23.09C198.738 23.09 198.558 23.024 198.426 22.892C198.306 22.76 198.246 22.586 198.246 22.37V21.398C197.982 21.95 197.592 22.376 197.076 22.676C196.572 22.976 195.978 23.126 195.294 23.126C194.526 23.126 193.848 22.934 193.26 22.55C192.672 22.166 192.216 21.632 191.892 20.948C191.568 20.252 191.406 19.448 191.406 18.536C191.406 17.636 191.568 16.844 191.892 16.16C192.216 15.476 192.672 14.948 193.26 14.576C193.848 14.204 194.526 14.018 195.294 14.018C195.978 14.018 196.572 14.168 197.076 14.468C197.592 14.768 197.982 15.194 198.246 15.746V10.922C198.246 10.706 198.306 10.538 198.426 10.418C198.558 10.286 198.738 10.22 198.966 10.22ZM195.582 21.92C196.434 21.92 197.088 21.632 197.544 21.056C198.012 20.468 198.246 19.64 198.246 18.572C198.246 17.504 198.012 16.682 197.544 16.106C197.088 15.53 196.434 15.242 195.582 15.242C194.73 15.242 194.064 15.53 193.584 16.106C193.116 16.682 192.882 17.492 192.882 18.536C192.882 19.604 193.116 20.438 193.584 21.038C194.064 21.626 194.73 21.92 195.582 21.92Z" fill="white"/>
</svg>
