<svg width="289" height="35" viewBox="0 0 289 35" fill="none" xmlns="http://www.w3.org/2000/svg">
<path d="M0.512695 27.9001H34.4873V30.5242H0.512695V27.9001Z" fill="#9DC6FB"/>
<path d="M19.8479 19.4756C22.67 19.4756 24.9579 17.1878 24.9579 14.3656C24.9579 11.5434 22.67 9.25562 19.8479 9.25562C17.0257 9.25562 14.7379 11.5434 14.7379 14.3656C14.7379 17.1878 17.0257 19.4756 19.8479 19.4756Z" fill="#FFE07D"/>
<path d="M19.8479 19.4756C20.9937 19.4756 22.0514 19.0984 22.9038 18.4615L18.4049 9.46362C16.2856 10.0865 14.7379 12.0448 14.7379 14.3656C14.7378 17.1877 17.0256 19.4756 19.8479 19.4756Z" fill="#FFD064"/>
<path d="M34.4874 27.9003L25.4374 9.8004C25.1829 9.29147 24.4566 9.29147 24.2022 9.8004L15.1522 27.9003H34.4874Z" fill="#95D6A4"/>
<path d="M21.3877 15.4293L15.1522 27.9002H27.6231L21.3877 15.4293Z" fill="#78C2A4"/>
<path d="M25.9246 27.9003L13.9598 3.97062C13.6544 3.35989 12.7829 3.35989 12.4775 3.97062L0.512695 27.9003H25.9246Z" fill="#B3E59F"/>
<path d="M12.4776 3.97062L12.321 4.2837C13.8717 7.38503 24.1293 27.9003 24.1293 27.9003H25.9247L13.9599 3.97062C13.6545 3.35989 12.7829 3.35989 12.4776 3.97062Z" fill="#95D6A4"/>
<path d="M9.24073 12.5997C9.5072 12.7842 9.86615 12.7585 10.1037 12.5379L11.0484 11.6608C11.3558 11.3752 11.8448 11.4277 12.0848 11.7719L12.6522 12.5861C12.927 12.9804 13.5105 12.9804 13.7853 12.5861L14.3528 11.7719C14.5927 11.4277 15.0817 11.3752 15.3892 11.6608L16.3338 12.5379C16.5713 12.7585 16.9303 12.7842 17.1968 12.5997L17.9973 12.0455C16.5026 9.05613 14.8776 5.80598 13.9599 3.97074C13.6546 3.36001 12.783 3.36001 12.4776 3.97074L8.44025 12.0455L9.24073 12.5997Z" fill="#F9F6F9"/>
<path d="M16.5064 12.6546C16.7252 12.759 16.989 12.7435 17.1968 12.5997L17.9973 12.0455C16.5026 9.05613 14.8775 5.80598 13.9599 3.97074C13.6545 3.36001 12.7829 3.36001 12.4776 3.97074L12.321 4.28382C12.8707 5.38304 14.4973 8.6364 16.5064 12.6546Z" fill="#DFDDE2"/>
<path d="M21.793 16.2585C21.9957 16.3988 22.2688 16.3794 22.4496 16.2115L23.1684 15.5441C23.4024 15.3268 23.7744 15.3668 23.957 15.6286L24.3887 16.2481C24.5978 16.5481 25.0418 16.5481 25.2508 16.2481L25.6826 15.6286C25.8652 15.3666 26.2372 15.3268 26.4711 15.544L27.1899 16.2115C27.3706 16.3793 27.6437 16.3988 27.8465 16.2584L28.4556 15.8368C27.3468 13.6193 26.1438 11.2132 25.4372 9.79996C25.1827 9.29102 24.4565 9.29143 24.2021 9.80037L21.1839 15.8368L21.793 16.2585Z" fill="#DFDDE2"/>
<path d="M34.999 27.9002C34.999 27.8218 34.982 27.7433 34.9459 27.671L31.1091 19.9978C30.9825 19.7446 30.6748 19.6419 30.4212 19.7686C30.168 19.8952 30.0653 20.2031 30.1919 20.4564L33.6576 27.3876H26.2415L21.1117 17.1282L21.3783 16.595L21.5011 16.6799C21.8985 16.9552 22.4442 16.9162 22.7985 16.5872L23.5173 15.9197C23.5194 15.9177 23.5216 15.9158 23.5273 15.9164C23.5331 15.917 23.5347 15.9194 23.5363 15.9218L23.9681 16.5413C24.1622 16.8197 24.4805 16.9858 24.8198 16.9858C25.1591 16.9858 25.4774 16.8196 25.6715 16.5413L26.1032 15.9218C26.1048 15.9194 26.1065 15.9171 26.1123 15.9164C26.1181 15.916 26.1202 15.9178 26.1223 15.9198L26.8412 16.5872C27.1954 16.9162 27.7411 16.9552 28.1384 16.68L28.2613 16.5949L29.1213 18.3148C29.2111 18.4944 29.3922 18.5982 29.5803 18.5982C29.6573 18.5982 29.7355 18.5808 29.8092 18.544C30.0624 18.4174 30.1651 18.1095 30.0385 17.8562L25.8958 9.57146C25.6908 9.16103 25.2785 8.90611 24.8197 8.90611C24.3609 8.90611 23.9486 9.16103 23.7438 9.57125L23.4888 10.0813C22.4783 9.22385 21.1864 8.74301 19.8479 8.74301C18.9315 8.74301 18.0405 8.9636 17.2397 9.38408L14.4184 3.74149C14.1897 3.28417 13.73 3 13.2187 3C12.7073 3 12.2476 3.2841 12.0189 3.74149L6.49886 14.7815C6.37219 15.0348 6.47486 15.3428 6.72813 15.4694C6.98147 15.5961 7.28943 15.4933 7.41604 15.2401L8.63434 12.8035L8.94886 13.0212C9.40946 13.3402 10.0419 13.2949 10.4525 12.9136L11.3971 12.0364C11.4488 11.9884 11.5068 11.9866 11.5371 11.9899C11.5672 11.9931 11.6238 12.0072 11.664 12.065L12.2315 12.8792C12.4564 13.2018 12.8254 13.3945 13.2187 13.3945C13.6119 13.3945 13.9809 13.2018 14.2058 12.8792L14.7733 12.065C14.8136 12.0072 14.8701 11.9931 14.9002 11.9899C14.9304 11.9866 14.9885 11.9884 15.0402 12.0364L15.9848 12.9135C16.3955 13.2949 17.0278 13.3401 17.4884 13.0211L17.8029 12.8034L25.0949 27.3876H1.34224L6.34081 17.3904C6.46748 17.1371 6.3648 16.8292 6.11153 16.7026C5.85813 16.5758 5.55023 16.6786 5.42363 16.9318L0.0541406 27.671C0.0179102 27.7433 0.000957031 27.8218 0.000957031 27.9002C0.000615234 27.9002 0.000341797 27.9002 0 27.9002V30.5243C0 30.8074 0.229482 31.037 0.512695 31.037H34.4873C34.7705 31.037 35 30.8074 35 30.5243V27.9002C34.9997 27.9002 34.9994 27.9002 34.999 27.9002ZM24.8197 9.93144C24.8607 9.93144 24.9358 9.94422 24.9785 10.0297L27.7979 15.6685L27.5546 15.8369C27.5497 15.8403 27.5432 15.8399 27.5388 15.8358L26.82 15.1684C26.5996 14.9637 26.3012 14.8647 26.0029 14.8969C25.7039 14.9289 25.4339 15.0887 25.2619 15.3354L24.8301 15.955C24.8253 15.962 24.8141 15.962 24.8093 15.955L24.3775 15.3355C24.2056 15.0889 23.9355 14.929 23.6366 14.8969C23.3373 14.8648 23.0398 14.9638 22.8195 15.1683L22.1007 15.8358C22.0963 15.8398 22.0896 15.8402 22.0847 15.8369L21.8415 15.6685L24.661 10.0295C24.7036 9.94422 24.7788 9.93144 24.8197 9.93144ZM19.8479 9.76833C21.0275 9.76833 22.1621 10.2263 23.0128 11.0332L20.5386 15.9817L17.6984 10.3015C18.3572 9.95194 19.0918 9.76833 19.8479 9.76833ZM16.9048 12.1781C16.8368 12.2252 16.7433 12.2186 16.6826 12.1622L15.738 11.285C15.4826 11.0478 15.1374 10.9331 14.7909 10.9703C14.4444 11.0075 14.1314 11.1927 13.9321 11.4787L13.3646 12.2929C13.3185 12.3592 13.2534 12.3691 13.2187 12.3691C13.1841 12.3691 13.119 12.3592 13.0728 12.2929L12.5053 11.4787C12.3061 11.1928 11.993 11.0075 11.6465 10.9703C11.3003 10.9331 10.9548 11.0478 10.6995 11.285L9.75482 12.1622C9.69418 12.2185 9.60066 12.2253 9.53258 12.1781L9.09761 11.8769L12.9361 4.19998C13.0149 4.04234 13.16 4.02532 13.2188 4.02532C13.2774 4.02532 13.4225 4.04234 13.5014 4.19998L17.3399 11.877L16.9048 12.1781ZM1.02539 30.0116V28.4129H33.9746V30.0116H1.02539Z" fill="black"/>
<path d="M55.784 10.67C55.832 10.514 55.916 10.4 56.036 10.328C56.156 10.244 56.288 10.202 56.432 10.202C56.624 10.202 56.786 10.262 56.918 10.382C57.062 10.49 57.134 10.64 57.134 10.832C57.134 10.916 57.116 11.012 57.08 11.12L53.012 22.586C52.952 22.754 52.85 22.886 52.706 22.982C52.562 23.066 52.4 23.108 52.22 23.108C52.052 23.108 51.896 23.066 51.752 22.982C51.608 22.886 51.506 22.754 51.446 22.586L47.918 12.614L44.354 22.586C44.294 22.754 44.192 22.886 44.048 22.982C43.904 23.066 43.748 23.108 43.58 23.108C43.412 23.108 43.256 23.066 43.112 22.982C42.968 22.886 42.866 22.754 42.806 22.586L38.72 11.12C38.684 11.024 38.666 10.934 38.666 10.85C38.666 10.658 38.738 10.502 38.882 10.382C39.038 10.262 39.212 10.202 39.404 10.202C39.548 10.202 39.68 10.244 39.8 10.328C39.932 10.4 40.022 10.514 40.07 10.67L43.616 20.894L47.216 10.778C47.276 10.598 47.372 10.466 47.504 10.382C47.636 10.286 47.78 10.238 47.936 10.238C48.092 10.238 48.236 10.286 48.368 10.382C48.5 10.478 48.596 10.616 48.656 10.796L52.202 20.93L55.784 10.67ZM64.9446 20.966C65.0766 20.966 65.1906 21.02 65.2866 21.128C65.3826 21.236 65.4306 21.374 65.4306 21.542C65.4306 21.842 65.2206 22.118 64.8006 22.37C64.3686 22.622 63.9126 22.814 63.4326 22.946C62.9526 23.066 62.4846 23.126 62.0286 23.126C60.6726 23.126 59.5986 22.724 58.8066 21.92C58.0266 21.116 57.6366 20.006 57.6366 18.59C57.6366 17.69 57.8106 16.898 58.1586 16.214C58.5066 15.518 58.9926 14.978 59.6166 14.594C60.2526 14.21 60.9726 14.018 61.7766 14.018C62.9166 14.018 63.8226 14.39 64.4946 15.134C65.1666 15.878 65.5026 16.886 65.5026 18.158C65.5026 18.398 65.4546 18.572 65.3586 18.68C65.2626 18.788 65.1066 18.842 64.8906 18.842H59.0946C59.2026 20.906 60.1806 21.938 62.0286 21.938C62.4966 21.938 62.8986 21.878 63.2346 21.758C63.5706 21.626 63.9306 21.452 64.3146 21.236C64.6266 21.056 64.8366 20.966 64.9446 20.966ZM61.7946 15.152C61.0266 15.152 60.4086 15.392 59.9406 15.872C59.4846 16.352 59.2146 17.03 59.1306 17.906H64.2246C64.2006 17.018 63.9786 16.34 63.5586 15.872C63.1386 15.392 62.5506 15.152 61.7946 15.152ZM71.2328 14.018C73.4288 14.018 74.5268 15.17 74.5268 17.474V22.37C74.5268 22.586 74.4608 22.76 74.3288 22.892C74.2088 23.024 74.0408 23.09 73.8248 23.09C73.6088 23.09 73.4348 23.024 73.3028 22.892C73.1708 22.76 73.1048 22.586 73.1048 22.37V21.506C72.8768 22.022 72.5288 22.424 72.0608 22.712C71.5928 22.988 71.0528 23.126 70.4408 23.126C69.8768 23.126 69.3548 23.012 68.8748 22.784C68.4068 22.556 68.0348 22.238 67.7588 21.83C67.4828 21.422 67.3448 20.972 67.3448 20.48C67.3448 19.82 67.5128 19.31 67.8488 18.95C68.1848 18.578 68.7368 18.314 69.5048 18.158C70.2728 17.99 71.3408 17.906 72.7088 17.906H73.1048V17.312C73.1048 16.592 72.9548 16.064 72.6548 15.728C72.3668 15.392 71.8928 15.224 71.2328 15.224C70.4168 15.224 69.5888 15.446 68.7488 15.89C68.4248 16.094 68.1968 16.196 68.0648 16.196C67.9208 16.196 67.8008 16.142 67.7048 16.034C67.6088 15.926 67.5608 15.788 67.5608 15.62C67.5608 15.452 67.6088 15.308 67.7048 15.188C67.8128 15.056 67.9808 14.924 68.2088 14.792C68.6288 14.552 69.1028 14.366 69.6308 14.234C70.1708 14.09 70.7048 14.018 71.2328 14.018ZM70.6388 21.974C71.3588 21.974 71.9468 21.734 72.4028 21.254C72.8708 20.762 73.1048 20.132 73.1048 19.364V18.842H72.7808C71.7248 18.842 70.9208 18.89 70.3688 18.986C69.8168 19.07 69.4208 19.22 69.1808 19.436C68.9528 19.64 68.8388 19.946 68.8388 20.354C68.8388 20.822 69.0068 21.212 69.3428 21.524C69.6908 21.824 70.1228 21.974 70.6388 21.974ZM81.2457 21.938C81.6657 21.974 81.8757 22.166 81.8757 22.514C81.8757 22.718 81.7977 22.874 81.6417 22.982C81.4977 23.078 81.2757 23.114 80.9757 23.09L80.4897 23.054C79.5297 22.982 78.8217 22.694 78.3657 22.19C77.9097 21.686 77.6817 20.924 77.6817 19.904V15.386H76.4757C76.2717 15.386 76.1097 15.338 75.9897 15.242C75.8817 15.134 75.8277 14.996 75.8277 14.828C75.8277 14.648 75.8817 14.504 75.9897 14.396C76.1097 14.288 76.2717 14.234 76.4757 14.234H77.6817V12.2C77.6817 11.972 77.7477 11.798 77.8797 11.678C78.0117 11.546 78.1917 11.48 78.4197 11.48C78.6357 11.48 78.8097 11.546 78.9417 11.678C79.0737 11.798 79.1397 11.972 79.1397 12.2V14.234H81.1377C81.3297 14.234 81.4797 14.288 81.5877 14.396C81.7077 14.504 81.7677 14.648 81.7677 14.828C81.7677 14.996 81.7077 15.134 81.5877 15.242C81.4797 15.338 81.3297 15.386 81.1377 15.386H79.1397V19.976C79.1397 20.636 79.2717 21.116 79.5357 21.416C79.8117 21.704 80.2197 21.866 80.7597 21.902L81.2457 21.938ZM87.7409 14.018C88.7729 14.018 89.5529 14.312 90.0809 14.9C90.6089 15.476 90.8729 16.34 90.8729 17.492V22.37C90.8729 22.598 90.8069 22.778 90.6749 22.91C90.5429 23.03 90.3689 23.09 90.1529 23.09C89.9249 23.09 89.7449 23.03 89.6129 22.91C89.4809 22.778 89.4149 22.598 89.4149 22.37V17.528C89.4149 16.748 89.2529 16.172 88.9289 15.8C88.6169 15.428 88.1129 15.242 87.4169 15.242C86.6129 15.242 85.9709 15.488 85.4909 15.98C85.0109 16.472 84.7709 17.138 84.7709 17.978V22.37C84.7709 22.598 84.7049 22.778 84.5729 22.91C84.4529 23.03 84.2789 23.09 84.0509 23.09C83.8229 23.09 83.6429 23.03 83.5109 22.91C83.3789 22.778 83.3129 22.598 83.3129 22.37V10.922C83.3129 10.718 83.3789 10.55 83.5109 10.418C83.6549 10.286 83.8349 10.22 84.0509 10.22C84.2789 10.22 84.4529 10.286 84.5729 10.418C84.7049 10.538 84.7709 10.706 84.7709 10.922V15.638C85.0589 15.11 85.4609 14.708 85.9769 14.432C86.4929 14.156 87.0809 14.018 87.7409 14.018ZM100.329 20.966C100.461 20.966 100.575 21.02 100.671 21.128C100.767 21.236 100.815 21.374 100.815 21.542C100.815 21.842 100.605 22.118 100.185 22.37C99.7534 22.622 99.2974 22.814 98.8174 22.946C98.3374 23.066 97.8694 23.126 97.4134 23.126C96.0574 23.126 94.9834 22.724 94.1914 21.92C93.4114 21.116 93.0214 20.006 93.0214 18.59C93.0214 17.69 93.1954 16.898 93.5434 16.214C93.8914 15.518 94.3774 14.978 95.0014 14.594C95.6374 14.21 96.3574 14.018 97.1614 14.018C98.3014 14.018 99.2074 14.39 99.8794 15.134C100.551 15.878 100.887 16.886 100.887 18.158C100.887 18.398 100.839 18.572 100.743 18.68C100.647 18.788 100.491 18.842 100.275 18.842H94.4794C94.5874 20.906 95.5654 21.938 97.4134 21.938C97.8814 21.938 98.2834 21.878 98.6194 21.758C98.9554 21.626 99.3154 21.452 99.6994 21.236C100.011 21.056 100.221 20.966 100.329 20.966ZM97.1794 15.152C96.4114 15.152 95.7934 15.392 95.3254 15.872C94.8694 16.352 94.5994 17.03 94.5154 17.906H99.6094C99.5854 17.018 99.3634 16.34 98.9434 15.872C98.5234 15.392 97.9354 15.152 97.1794 15.152ZM107.374 14.054C107.878 14.018 108.13 14.222 108.13 14.666C108.13 14.858 108.076 15.014 107.968 15.134C107.86 15.242 107.674 15.308 107.41 15.332L106.87 15.386C106.066 15.458 105.466 15.746 105.07 16.25C104.686 16.742 104.494 17.324 104.494 17.996V22.37C104.494 22.61 104.428 22.79 104.296 22.91C104.164 23.03 103.99 23.09 103.774 23.09C103.558 23.09 103.378 23.03 103.234 22.91C103.102 22.778 103.036 22.598 103.036 22.37V14.774C103.036 14.546 103.108 14.372 103.252 14.252C103.396 14.12 103.57 14.054 103.774 14.054C103.966 14.054 104.128 14.12 104.26 14.252C104.392 14.372 104.458 14.54 104.458 14.756V15.764C104.71 15.236 105.064 14.834 105.52 14.558C105.988 14.282 106.522 14.12 107.122 14.072L107.374 14.054ZM114.994 23C114.766 23 114.58 22.934 114.436 22.802C114.304 22.67 114.238 22.496 114.238 22.28V11.03C114.238 10.814 114.304 10.64 114.436 10.508C114.58 10.376 114.766 10.31 114.994 10.31H118.504C120.532 10.31 122.098 10.862 123.202 11.966C124.318 13.058 124.876 14.618 124.876 16.646C124.876 18.674 124.318 20.24 123.202 21.344C122.086 22.448 120.52 23 118.504 23H114.994ZM118.414 21.74C121.702 21.74 123.346 20.042 123.346 16.646C123.346 13.262 121.702 11.57 118.414 11.57H115.714V21.74H118.414ZM130.911 14.018C133.107 14.018 134.205 15.17 134.205 17.474V22.37C134.205 22.586 134.139 22.76 134.007 22.892C133.887 23.024 133.719 23.09 133.503 23.09C133.287 23.09 133.113 23.024 132.981 22.892C132.849 22.76 132.783 22.586 132.783 22.37V21.506C132.555 22.022 132.207 22.424 131.739 22.712C131.271 22.988 130.731 23.126 130.119 23.126C129.555 23.126 129.033 23.012 128.553 22.784C128.085 22.556 127.713 22.238 127.437 21.83C127.161 21.422 127.023 20.972 127.023 20.48C127.023 19.82 127.191 19.31 127.527 18.95C127.863 18.578 128.415 18.314 129.183 18.158C129.951 17.99 131.019 17.906 132.387 17.906H132.783V17.312C132.783 16.592 132.633 16.064 132.333 15.728C132.045 15.392 131.571 15.224 130.911 15.224C130.095 15.224 129.267 15.446 128.427 15.89C128.103 16.094 127.875 16.196 127.743 16.196C127.599 16.196 127.479 16.142 127.383 16.034C127.287 15.926 127.239 15.788 127.239 15.62C127.239 15.452 127.287 15.308 127.383 15.188C127.491 15.056 127.659 14.924 127.887 14.792C128.307 14.552 128.781 14.366 129.309 14.234C129.849 14.09 130.383 14.018 130.911 14.018ZM130.317 21.974C131.037 21.974 131.625 21.734 132.081 21.254C132.549 20.762 132.783 20.132 132.783 19.364V18.842H132.459C131.403 18.842 130.599 18.89 130.047 18.986C129.495 19.07 129.099 19.22 128.859 19.436C128.631 19.64 128.517 19.946 128.517 20.354C128.517 20.822 128.685 21.212 129.021 21.524C129.369 21.824 129.801 21.974 130.317 21.974ZM139.825 23.126C139.273 23.126 138.745 23.06 138.241 22.928C137.749 22.796 137.311 22.61 136.927 22.37C136.711 22.226 136.555 22.094 136.459 21.974C136.375 21.842 136.333 21.686 136.333 21.506C136.333 21.35 136.375 21.224 136.459 21.128C136.555 21.02 136.675 20.966 136.819 20.966C136.963 20.966 137.173 21.056 137.449 21.236C137.809 21.452 138.163 21.626 138.511 21.758C138.871 21.878 139.315 21.938 139.843 21.938C140.491 21.938 140.995 21.824 141.355 21.596C141.715 21.368 141.895 21.038 141.895 20.606C141.895 20.342 141.829 20.132 141.697 19.976C141.565 19.808 141.337 19.664 141.013 19.544C140.689 19.412 140.215 19.28 139.591 19.148C138.535 18.92 137.779 18.614 137.323 18.23C136.867 17.846 136.639 17.324 136.639 16.664C136.639 16.148 136.783 15.692 137.071 15.296C137.359 14.9 137.755 14.588 138.259 14.36C138.775 14.132 139.357 14.018 140.005 14.018C140.473 14.018 140.923 14.084 141.355 14.216C141.799 14.336 142.189 14.51 142.525 14.738C142.933 15.026 143.137 15.326 143.137 15.638C143.137 15.794 143.089 15.926 142.993 16.034C142.897 16.142 142.783 16.196 142.651 16.196C142.507 16.196 142.291 16.094 142.003 15.89C141.667 15.674 141.349 15.506 141.049 15.386C140.749 15.266 140.377 15.206 139.933 15.206C139.369 15.206 138.913 15.332 138.565 15.584C138.229 15.836 138.061 16.172 138.061 16.592C138.061 16.856 138.121 17.072 138.241 17.24C138.373 17.396 138.583 17.54 138.871 17.672C139.171 17.792 139.597 17.912 140.149 18.032C140.965 18.212 141.595 18.41 142.039 18.626C142.495 18.842 142.819 19.106 143.011 19.418C143.203 19.73 143.299 20.126 143.299 20.606C143.299 21.362 142.981 21.974 142.345 22.442C141.709 22.898 140.869 23.126 139.825 23.126ZM149.95 14.018C150.982 14.018 151.762 14.312 152.29 14.9C152.818 15.476 153.082 16.34 153.082 17.492V22.37C153.082 22.598 153.016 22.778 152.884 22.91C152.752 23.03 152.578 23.09 152.362 23.09C152.134 23.09 151.954 23.03 151.822 22.91C151.69 22.778 151.624 22.598 151.624 22.37V17.528C151.624 16.748 151.462 16.172 151.138 15.8C150.826 15.428 150.322 15.242 149.626 15.242C148.822 15.242 148.18 15.488 147.7 15.98C147.22 16.472 146.98 17.138 146.98 17.978V22.37C146.98 22.598 146.914 22.778 146.782 22.91C146.662 23.03 146.488 23.09 146.26 23.09C146.032 23.09 145.852 23.03 145.72 22.91C145.588 22.778 145.522 22.598 145.522 22.37V10.922C145.522 10.718 145.588 10.55 145.72 10.418C145.864 10.286 146.044 10.22 146.26 10.22C146.488 10.22 146.662 10.286 146.782 10.418C146.914 10.538 146.98 10.706 146.98 10.922V15.638C147.268 15.11 147.67 14.708 148.186 14.432C148.702 14.156 149.29 14.018 149.95 14.018ZM160.162 14.018C160.93 14.018 161.608 14.204 162.196 14.576C162.784 14.948 163.24 15.476 163.564 16.16C163.888 16.844 164.05 17.636 164.05 18.536C164.05 19.448 163.888 20.252 163.564 20.948C163.24 21.632 162.784 22.166 162.196 22.55C161.608 22.934 160.93 23.126 160.162 23.126C159.478 23.126 158.878 22.976 158.362 22.676C157.858 22.376 157.474 21.95 157.21 21.398V22.37C157.21 22.586 157.144 22.76 157.012 22.892C156.892 23.024 156.718 23.09 156.49 23.09C156.262 23.09 156.082 23.024 155.95 22.892C155.818 22.76 155.752 22.586 155.752 22.37V10.922C155.752 10.718 155.818 10.55 155.95 10.418C156.082 10.286 156.262 10.22 156.49 10.22C156.718 10.22 156.892 10.286 157.012 10.418C157.144 10.538 157.21 10.706 157.21 10.922V15.746C157.474 15.194 157.858 14.768 158.362 14.468C158.878 14.168 159.478 14.018 160.162 14.018ZM159.874 21.92C160.726 21.92 161.386 21.626 161.854 21.038C162.322 20.438 162.556 19.604 162.556 18.536C162.556 17.492 162.322 16.682 161.854 16.106C161.386 15.53 160.726 15.242 159.874 15.242C159.022 15.242 158.362 15.53 157.894 16.106C157.438 16.682 157.21 17.504 157.21 18.572C157.21 19.64 157.438 20.468 157.894 21.056C158.362 21.632 159.022 21.92 159.874 21.92ZM169.865 23.126C169.037 23.126 168.305 22.94 167.669 22.568C167.045 22.196 166.559 21.668 166.211 20.984C165.875 20.288 165.707 19.484 165.707 18.572C165.707 17.66 165.875 16.862 166.211 16.178C166.559 15.482 167.045 14.948 167.669 14.576C168.305 14.204 169.037 14.018 169.865 14.018C170.693 14.018 171.425 14.204 172.061 14.576C172.697 14.948 173.183 15.482 173.519 16.178C173.867 16.862 174.041 17.66 174.041 18.572C174.041 19.484 173.867 20.288 173.519 20.984C173.183 21.668 172.697 22.196 172.061 22.568C171.425 22.94 170.693 23.126 169.865 23.126ZM169.865 21.92C170.729 21.92 171.389 21.638 171.845 21.074C172.313 20.498 172.547 19.664 172.547 18.572C172.547 17.504 172.313 16.682 171.845 16.106C171.377 15.518 170.717 15.224 169.865 15.224C169.013 15.224 168.353 15.518 167.885 16.106C167.417 16.682 167.183 17.504 167.183 18.572C167.183 19.652 167.411 20.48 167.867 21.056C168.335 21.632 169.001 21.92 169.865 21.92ZM179.795 14.018C181.991 14.018 183.089 15.17 183.089 17.474V22.37C183.089 22.586 183.023 22.76 182.891 22.892C182.771 23.024 182.603 23.09 182.387 23.09C182.171 23.09 181.997 23.024 181.865 22.892C181.733 22.76 181.667 22.586 181.667 22.37V21.506C181.439 22.022 181.091 22.424 180.623 22.712C180.155 22.988 179.615 23.126 179.003 23.126C178.439 23.126 177.917 23.012 177.437 22.784C176.969 22.556 176.597 22.238 176.321 21.83C176.045 21.422 175.907 20.972 175.907 20.48C175.907 19.82 176.075 19.31 176.411 18.95C176.747 18.578 177.299 18.314 178.067 18.158C178.835 17.99 179.903 17.906 181.271 17.906H181.667V17.312C181.667 16.592 181.517 16.064 181.217 15.728C180.929 15.392 180.455 15.224 179.795 15.224C178.979 15.224 178.151 15.446 177.311 15.89C176.987 16.094 176.759 16.196 176.627 16.196C176.483 16.196 176.363 16.142 176.267 16.034C176.171 15.926 176.123 15.788 176.123 15.62C176.123 15.452 176.171 15.308 176.267 15.188C176.375 15.056 176.543 14.924 176.771 14.792C177.191 14.552 177.665 14.366 178.193 14.234C178.733 14.09 179.267 14.018 179.795 14.018ZM179.201 21.974C179.921 21.974 180.509 21.734 180.965 21.254C181.433 20.762 181.667 20.132 181.667 19.364V18.842H181.343C180.287 18.842 179.483 18.89 178.931 18.986C178.379 19.07 177.983 19.22 177.743 19.436C177.515 19.64 177.401 19.946 177.401 20.354C177.401 20.822 177.569 21.212 177.905 21.524C178.253 21.824 178.685 21.974 179.201 21.974ZM190.096 14.054C190.6 14.018 190.852 14.222 190.852 14.666C190.852 14.858 190.798 15.014 190.69 15.134C190.582 15.242 190.396 15.308 190.132 15.332L189.592 15.386C188.788 15.458 188.188 15.746 187.792 16.25C187.408 16.742 187.216 17.324 187.216 17.996V22.37C187.216 22.61 187.15 22.79 187.018 22.91C186.886 23.03 186.712 23.09 186.496 23.09C186.28 23.09 186.1 23.03 185.956 22.91C185.824 22.778 185.758 22.598 185.758 22.37V14.774C185.758 14.546 185.83 14.372 185.974 14.252C186.118 14.12 186.292 14.054 186.496 14.054C186.688 14.054 186.85 14.12 186.982 14.252C187.114 14.372 187.18 14.54 187.18 14.756V15.764C187.432 15.236 187.786 14.834 188.242 14.558C188.71 14.282 189.244 14.12 189.844 14.072L190.096 14.054ZM198.966 10.22C199.194 10.22 199.374 10.286 199.506 10.418C199.638 10.55 199.704 10.718 199.704 10.922V22.37C199.704 22.586 199.638 22.76 199.506 22.892C199.374 23.024 199.194 23.09 198.966 23.09C198.738 23.09 198.558 23.024 198.426 22.892C198.306 22.76 198.246 22.586 198.246 22.37V21.398C197.982 21.95 197.592 22.376 197.076 22.676C196.572 22.976 195.978 23.126 195.294 23.126C194.526 23.126 193.848 22.934 193.26 22.55C192.672 22.166 192.216 21.632 191.892 20.948C191.568 20.252 191.406 19.448 191.406 18.536C191.406 17.636 191.568 16.844 191.892 16.16C192.216 15.476 192.672 14.948 193.26 14.576C193.848 14.204 194.526 14.018 195.294 14.018C195.978 14.018 196.572 14.168 197.076 14.468C197.592 14.768 197.982 15.194 198.246 15.746V10.922C198.246 10.706 198.306 10.538 198.426 10.418C198.558 10.286 198.738 10.22 198.966 10.22ZM195.582 21.92C196.434 21.92 197.088 21.632 197.544 21.056C198.012 20.468 198.246 19.64 198.246 18.572C198.246 17.504 198.012 16.682 197.544 16.106C197.088 15.53 196.434 15.242 195.582 15.242C194.73 15.242 194.064 15.53 193.584 16.106C193.116 16.682 192.882 17.492 192.882 18.536C192.882 19.604 193.116 20.438 193.584 21.038C194.064 21.626 194.73 21.92 195.582 21.92Z" fill="white"/>
<rect x="205" y="9" width="84" height="18" rx="9" fill="white"/>
<path d="M221.04 14.11C221.073 14.0367 221.12 13.98 221.18 13.94C221.247 13.9 221.317 13.88 221.39 13.88C221.497 13.88 221.59 13.9167 221.67 13.99C221.757 14.0567 221.8 14.14 221.8 14.24C221.8 14.2933 221.787 14.3467 221.76 14.4L218.89 20.78C218.85 20.8667 218.79 20.9333 218.71 20.98C218.63 21.0267 218.543 21.05 218.45 21.05C218.357 21.05 218.27 21.0267 218.19 20.98C218.11 20.9333 218.05 20.8667 218.01 20.78L215.15 14.4C215.13 14.3467 215.12 14.2967 215.12 14.25C215.12 14.1433 215.163 14.0567 215.25 13.99C215.337 13.9167 215.433 13.88 215.54 13.88C215.7 13.88 215.817 13.9567 215.89 14.11L218.47 19.94L221.04 14.11ZM225.866 16.03C225.993 16.03 226.089 16.0667 226.156 16.14C226.229 16.2133 226.266 16.31 226.266 16.43V20.66C226.266 20.7733 226.229 20.8667 226.156 20.94C226.089 21.0133 225.993 21.05 225.866 21.05C225.746 21.05 225.649 21.0167 225.576 20.95C225.509 20.8767 225.476 20.7833 225.476 20.67V20.17C225.323 20.4633 225.106 20.6867 224.826 20.84C224.553 20.9933 224.243 21.07 223.896 21.07C223.316 21.07 222.879 20.91 222.586 20.59C222.293 20.2633 222.146 19.7833 222.146 19.15V16.43C222.146 16.31 222.183 16.2133 222.256 16.14C222.329 16.0667 222.429 16.03 222.556 16.03C222.683 16.03 222.779 16.0667 222.846 16.14C222.919 16.2133 222.956 16.31 222.956 16.43V19.13C222.956 19.5633 223.043 19.8833 223.216 20.09C223.389 20.29 223.663 20.39 224.036 20.39C224.463 20.39 224.806 20.2533 225.066 19.98C225.326 19.7 225.456 19.3333 225.456 18.88V16.43C225.456 16.31 225.493 16.2133 225.566 16.14C225.639 16.0667 225.739 16.03 225.866 16.03ZM229.791 21.07C229.331 21.07 228.925 20.9667 228.571 20.76C228.225 20.5533 227.955 20.26 227.761 19.88C227.575 19.4933 227.481 19.0467 227.481 18.54C227.481 18.0333 227.575 17.59 227.761 17.21C227.955 16.8233 228.225 16.5267 228.571 16.32C228.925 16.1133 229.331 16.01 229.791 16.01C230.251 16.01 230.658 16.1133 231.011 16.32C231.365 16.5267 231.635 16.8233 231.821 17.21C232.015 17.59 232.111 18.0333 232.111 18.54C232.111 19.0467 232.015 19.4933 231.821 19.88C231.635 20.26 231.365 20.5533 231.011 20.76C230.658 20.9667 230.251 21.07 229.791 21.07ZM229.791 20.4C230.271 20.4 230.638 20.2433 230.891 19.93C231.151 19.61 231.281 19.1467 231.281 18.54C231.281 17.9467 231.151 17.49 230.891 17.17C230.631 16.8433 230.265 16.68 229.791 16.68C229.318 16.68 228.951 16.8433 228.691 17.17C228.431 17.49 228.301 17.9467 228.301 18.54C228.301 19.14 228.428 19.6 228.681 19.92C228.941 20.24 229.311 20.4 229.791 20.4ZM235.728 16.03C236.008 16.01 236.148 16.1233 236.148 16.37C236.148 16.4767 236.118 16.5633 236.058 16.63C235.998 16.69 235.895 16.7267 235.748 16.74L235.448 16.77C235.002 16.81 234.668 16.97 234.448 17.25C234.235 17.5233 234.128 17.8467 234.128 18.22V20.65C234.128 20.7833 234.092 20.8833 234.018 20.95C233.945 21.0167 233.848 21.05 233.728 21.05C233.608 21.05 233.508 21.0167 233.428 20.95C233.355 20.8767 233.318 20.7767 233.318 20.65V16.43C233.318 16.3033 233.358 16.2067 233.438 16.14C233.518 16.0667 233.615 16.03 233.728 16.03C233.835 16.03 233.925 16.0667 233.998 16.14C234.072 16.2067 234.108 16.3 234.108 16.42V16.98C234.248 16.6867 234.445 16.4633 234.698 16.31C234.958 16.1567 235.255 16.0667 235.588 16.04L235.728 16.03ZM240.516 19.87C240.589 19.87 240.653 19.9 240.706 19.96C240.759 20.02 240.786 20.0967 240.786 20.19C240.786 20.3567 240.669 20.51 240.436 20.65C240.196 20.79 239.943 20.8967 239.676 20.97C239.409 21.0367 239.149 21.07 238.896 21.07C238.143 21.07 237.546 20.8467 237.106 20.4C236.673 19.9533 236.456 19.3367 236.456 18.55C236.456 18.05 236.553 17.61 236.746 17.23C236.939 16.8433 237.209 16.5433 237.556 16.33C237.909 16.1167 238.309 16.01 238.756 16.01C239.389 16.01 239.893 16.2167 240.266 16.63C240.639 17.0433 240.826 17.6033 240.826 18.31C240.826 18.4433 240.799 18.54 240.746 18.6C240.693 18.66 240.606 18.69 240.486 18.69H237.266C237.326 19.8367 237.869 20.41 238.896 20.41C239.156 20.41 239.379 20.3767 239.566 20.31C239.753 20.2367 239.953 20.14 240.166 20.02C240.339 19.92 240.456 19.87 240.516 19.87ZM238.766 16.64C238.339 16.64 237.996 16.7733 237.736 17.04C237.483 17.3067 237.333 17.6833 237.286 18.17H240.116C240.103 17.6767 239.979 17.3 239.746 17.04C239.513 16.7733 239.186 16.64 238.766 16.64ZM244.24 20.41C244.474 20.43 244.59 20.5367 244.59 20.73C244.59 20.8433 244.547 20.93 244.46 20.99C244.38 21.0433 244.257 21.0633 244.09 21.05L243.82 21.03C243.287 20.99 242.894 20.83 242.64 20.55C242.387 20.27 242.26 19.8467 242.26 19.28V16.77H241.59C241.477 16.77 241.387 16.7433 241.32 16.69C241.26 16.63 241.23 16.5533 241.23 16.46C241.23 16.36 241.26 16.28 241.32 16.22C241.387 16.16 241.477 16.13 241.59 16.13H242.26V15C242.26 14.8733 242.297 14.7767 242.37 14.71C242.444 14.6367 242.544 14.6 242.67 14.6C242.79 14.6 242.887 14.6367 242.96 14.71C243.034 14.7767 243.07 14.8733 243.07 15V16.13H244.18C244.287 16.13 244.37 16.16 244.43 16.22C244.497 16.28 244.53 16.36 244.53 16.46C244.53 16.5533 244.497 16.63 244.43 16.69C244.37 16.7433 244.287 16.77 244.18 16.77H243.07V19.32C243.07 19.6867 243.144 19.9533 243.29 20.12C243.444 20.28 243.67 20.37 243.97 20.39L244.24 20.41ZM251.477 16.28C251.55 16.12 251.667 16.04 251.827 16.04C251.927 16.04 252.017 16.0733 252.097 16.14C252.177 16.2067 252.217 16.29 252.217 16.39C252.217 16.45 252.203 16.5033 252.177 16.55L250.227 20.75C250.187 20.8367 250.127 20.9067 250.047 20.96C249.967 21.0067 249.88 21.03 249.787 21.03C249.7 21.03 249.617 21.0067 249.537 20.96C249.457 20.9067 249.393 20.8367 249.347 20.75L247.407 16.55C247.38 16.5033 247.367 16.4533 247.367 16.4C247.367 16.3 247.41 16.2133 247.497 16.14C247.59 16.0667 247.69 16.03 247.797 16.03C247.863 16.03 247.927 16.05 247.987 16.09C248.053 16.13 248.103 16.1867 248.137 16.26L249.807 20.01L251.477 16.28ZM256.815 19.87C256.888 19.87 256.952 19.9 257.005 19.96C257.058 20.02 257.085 20.0967 257.085 20.19C257.085 20.3567 256.968 20.51 256.735 20.65C256.495 20.79 256.242 20.8967 255.975 20.97C255.708 21.0367 255.448 21.07 255.195 21.07C254.442 21.07 253.845 20.8467 253.405 20.4C252.972 19.9533 252.755 19.3367 252.755 18.55C252.755 18.05 252.852 17.61 253.045 17.23C253.238 16.8433 253.508 16.5433 253.855 16.33C254.208 16.1167 254.608 16.01 255.055 16.01C255.688 16.01 256.192 16.2167 256.565 16.63C256.938 17.0433 257.125 17.6033 257.125 18.31C257.125 18.4433 257.098 18.54 257.045 18.6C256.992 18.66 256.905 18.69 256.785 18.69H253.565C253.625 19.8367 254.168 20.41 255.195 20.41C255.455 20.41 255.678 20.3767 255.865 20.31C256.052 20.2367 256.252 20.14 256.465 20.02C256.638 19.92 256.755 19.87 256.815 19.87ZM255.065 16.64C254.638 16.64 254.295 16.7733 254.035 17.04C253.782 17.3067 253.632 17.6833 253.585 18.17H256.415C256.402 17.6767 256.278 17.3 256.045 17.04C255.812 16.7733 255.485 16.64 255.065 16.64ZM260.728 16.03C261.008 16.01 261.148 16.1233 261.148 16.37C261.148 16.4767 261.118 16.5633 261.058 16.63C260.998 16.69 260.895 16.7267 260.748 16.74L260.448 16.77C260.002 16.81 259.668 16.97 259.448 17.25C259.235 17.5233 259.128 17.8467 259.128 18.22V20.65C259.128 20.7833 259.092 20.8833 259.018 20.95C258.945 21.0167 258.848 21.05 258.728 21.05C258.608 21.05 258.508 21.0167 258.428 20.95C258.355 20.8767 258.318 20.7767 258.318 20.65V16.43C258.318 16.3033 258.358 16.2067 258.438 16.14C258.518 16.0667 258.615 16.03 258.728 16.03C258.835 16.03 258.925 16.0667 258.998 16.14C259.072 16.2067 259.108 16.3 259.108 16.42V16.98C259.248 16.6867 259.445 16.4633 259.698 16.31C259.958 16.1567 260.255 16.0667 260.588 16.04L260.728 16.03ZM263.435 21.07C263.128 21.07 262.835 21.0333 262.555 20.96C262.282 20.8867 262.038 20.7833 261.825 20.65C261.705 20.57 261.618 20.4967 261.565 20.43C261.518 20.3567 261.495 20.27 261.495 20.17C261.495 20.0833 261.518 20.0133 261.565 19.96C261.618 19.9 261.685 19.87 261.765 19.87C261.845 19.87 261.962 19.92 262.115 20.02C262.315 20.14 262.512 20.2367 262.705 20.31C262.905 20.3767 263.152 20.41 263.445 20.41C263.805 20.41 264.085 20.3467 264.285 20.22C264.485 20.0933 264.585 19.91 264.585 19.67C264.585 19.5233 264.548 19.4067 264.475 19.32C264.402 19.2267 264.275 19.1467 264.095 19.08C263.915 19.0067 263.652 18.9333 263.305 18.86C262.718 18.7333 262.298 18.5633 262.045 18.35C261.792 18.1367 261.665 17.8467 261.665 17.48C261.665 17.1933 261.745 16.94 261.905 16.72C262.065 16.5 262.285 16.3267 262.565 16.2C262.852 16.0733 263.175 16.01 263.535 16.01C263.795 16.01 264.045 16.0467 264.285 16.12C264.532 16.1867 264.748 16.2833 264.935 16.41C265.162 16.57 265.275 16.7367 265.275 16.91C265.275 16.9967 265.248 17.07 265.195 17.13C265.142 17.19 265.078 17.22 265.005 17.22C264.925 17.22 264.805 17.1633 264.645 17.05C264.458 16.93 264.282 16.8367 264.115 16.77C263.948 16.7033 263.742 16.67 263.495 16.67C263.182 16.67 262.928 16.74 262.735 16.88C262.548 17.02 262.455 17.2067 262.455 17.44C262.455 17.5867 262.488 17.7067 262.555 17.8C262.628 17.8867 262.745 17.9667 262.905 18.04C263.072 18.1067 263.308 18.1733 263.615 18.24C264.068 18.34 264.418 18.45 264.665 18.57C264.918 18.69 265.098 18.8367 265.205 19.01C265.312 19.1833 265.365 19.4033 265.365 19.67C265.365 20.09 265.188 20.43 264.835 20.69C264.482 20.9433 264.015 21.07 263.435 21.07ZM267.01 21.05C266.89 21.05 266.79 21.0167 266.71 20.95C266.636 20.8767 266.6 20.7767 266.6 20.65V16.43C266.6 16.3033 266.636 16.2067 266.71 16.14C266.79 16.0667 266.89 16.03 267.01 16.03C267.13 16.03 267.226 16.0667 267.3 16.14C267.373 16.2067 267.41 16.3033 267.41 16.43V20.65C267.41 20.7833 267.373 20.8833 267.3 20.95C267.226 21.0167 267.13 21.05 267.01 21.05ZM267.01 14.98C266.85 14.98 266.72 14.9333 266.62 14.84C266.52 14.7467 266.47 14.6233 266.47 14.47C266.47 14.3233 266.52 14.2033 266.62 14.11C266.72 14.0167 266.85 13.97 267.01 13.97C267.17 13.97 267.3 14.0167 267.4 14.11C267.5 14.2033 267.55 14.3233 267.55 14.47C267.55 14.6233 267.5 14.7467 267.4 14.84C267.3 14.9333 267.17 14.98 267.01 14.98ZM270.944 21.07C270.484 21.07 270.077 20.9667 269.724 20.76C269.377 20.5533 269.107 20.26 268.914 19.88C268.727 19.4933 268.634 19.0467 268.634 18.54C268.634 18.0333 268.727 17.59 268.914 17.21C269.107 16.8233 269.377 16.5267 269.724 16.32C270.077 16.1133 270.484 16.01 270.944 16.01C271.404 16.01 271.81 16.1133 272.164 16.32C272.517 16.5267 272.787 16.8233 272.974 17.21C273.167 17.59 273.264 18.0333 273.264 18.54C273.264 19.0467 273.167 19.4933 272.974 19.88C272.787 20.26 272.517 20.5533 272.164 20.76C271.81 20.9667 271.404 21.07 270.944 21.07ZM270.944 20.4C271.424 20.4 271.79 20.2433 272.044 19.93C272.304 19.61 272.434 19.1467 272.434 18.54C272.434 17.9467 272.304 17.49 272.044 17.17C271.784 16.8433 271.417 16.68 270.944 16.68C270.47 16.68 270.104 16.8433 269.844 17.17C269.584 17.49 269.454 17.9467 269.454 18.54C269.454 19.14 269.58 19.6 269.834 19.92C270.094 20.24 270.464 20.4 270.944 20.4ZM276.921 16.01C278.087 16.01 278.671 16.6533 278.671 17.94V20.65C278.671 20.7767 278.634 20.8767 278.561 20.95C278.494 21.0167 278.397 21.05 278.271 21.05C278.144 21.05 278.044 21.0167 277.971 20.95C277.897 20.8767 277.861 20.7767 277.861 20.65V17.99C277.861 17.5367 277.771 17.2067 277.591 17C277.417 16.7933 277.137 16.69 276.751 16.69C276.304 16.69 275.947 16.8267 275.681 17.1C275.414 17.3733 275.281 17.7433 275.281 18.21V20.65C275.281 20.7767 275.244 20.8767 275.171 20.95C275.104 21.0167 275.007 21.05 274.881 21.05C274.754 21.05 274.654 21.0167 274.581 20.95C274.507 20.8767 274.471 20.7767 274.471 20.65V16.43C274.471 16.31 274.507 16.2133 274.581 16.14C274.654 16.0667 274.754 16.03 274.881 16.03C275.001 16.03 275.094 16.0667 275.161 16.14C275.234 16.2133 275.271 16.3067 275.271 16.42V16.93C275.431 16.63 275.654 16.4033 275.941 16.25C276.227 16.09 276.554 16.01 276.921 16.01Z" fill="#577FFF"/>
</svg>
